<svg width="385" height="352" viewBox="0 0 385 352" fill="none" xmlns="http://www.w3.org/2000/svg">
<path d="M89.7447 218.506C89.7447 209.025 89.961 200.093 91.3902 190.738C93.182 179.01 98.8799 167.907 103.166 156.953C107.269 146.468 115.636 138.395 121.01 128.722C124.809 121.883 133.098 122.03 139.728 124.608C147.924 127.796 163.229 129.841 170.273 123.168C173.993 119.644 178.832 117.899 180.66 112.781C182.396 107.922 182.306 103.878 182.306 98.6912C182.306 94.1242 177.186 91.2061 174.387 88.4066C170.336 84.3564 165.662 80.8682 160.811 77.8135C150.847 71.5396 139.738 68.808 128.569 65.3178C119.089 62.3552 110 59.2 99.9264 62.0782C95.3521 63.3851 90.041 67.9095 86.4536 70.9229C77.2459 78.6574 71.175 88.583 63.8276 97.9713C52.6097 112.305 46.5681 128.568 39.3504 144.972C31.299 163.27 21.8045 181.963 16.6215 201.331C12.1336 218.102 3.66297 235.024 3.66297 252.754C3.66297 264.497 3.35176 278.744 14.5646 286.076C20.6243 290.038 33.9575 290.441 35.1851 299.034C36.5957 308.908 36.0593 319.26 36.0593 329.374C36.0593 331.765 35.7963 346.372 34.2081 347.166" stroke="black" stroke-width="5.48023" stroke-linecap="round"/>
<path d="M95.3034 63.9283C95.3034 59.4545 95.3034 54.9807 95.3034 50.5069C95.3034 47.4596 89.2804 46.798 87.4357 44.9532C76.8085 34.3261 70.3074 24.554 68.4093 9.36869C68.3061 8.54348 67.8034 4.56183 67.3294 3.9693C65.7067 1.94096 74.3324 5.24146 75.6599 5.61483C86.1131 8.55481 95.3896 10.2429 106.205 10.2429C112.041 10.2429 116.802 10.3177 122.352 12.2998C128.187 14.3838 134.042 17.9637 139.733 20.4246C150.603 25.1252 161.252 20.622 171.563 17.185C178.712 14.8021 185.005 13.9453 192.492 13.9453C209.813 13.9453 226.308 18.862 242.527 24.5384C249.829 27.0941 257.632 27.4692 264.69 30.6063C270.952 33.3896 277.788 34.4956 284.333 36.3656C289.246 37.7694 296.432 39.8624 301.509 39.8624C303.618 39.8624 305.341 39.726 307.268 40.5823" stroke="black" stroke-width="5.48023" stroke-linecap="round"/>
<path d="M307.262 40.7877C313.316 40.7877 319.256 40.7269 324.848 38.0108C328.949 36.019 334.345 33.5529 338.938 33.3828C344.543 33.1752 349.696 30.606 355.599 30.606C360.004 30.606 364.41 30.606 368.815 30.606C371.209 30.606 376.416 32.7371 377.608 34.8226C378.332 36.0897 380.888 37.2255 381.259 38.5251C382.077 41.3864 376.789 43.9748 375.037 45.4157C360.474 57.3895 352.687 77.1308 343.823 93.0846C340.067 99.8453 334.866 106.581 339.195 114.374C344.855 124.561 345.672 137.757 343.155 149.084C341.93 154.596 340.511 161.674 338.013 166.671C336.142 170.411 335.682 174.569 333.642 178.241C332.982 179.428 332.65 181.71 332.305 182.92C330.609 188.854 333.059 180.268 333.179 180.298" stroke="black" stroke-width="5.48023" stroke-linecap="round"/>
<path d="M332.26 184.257C332.26 196.224 337.427 203.435 342.647 213.876C346.234 221.051 350.257 228.56 354.063 235.628C358.29 243.479 364.141 253.913 364.656 262.934C365.145 271.491 368.383 280.282 369.336 288.851C370.154 296.214 371.838 303.993 373.192 311.271C374.545 318.542 374.991 326.901 378.077 333.691C380.079 338.095 381.317 344.189 381.317 349.015" stroke="black" stroke-width="5.48023" stroke-linecap="round"/>
<path d="M296.818 75.2224C298.203 74.8761 299.666 73.4738 300.789 72.6601C303.405 70.7639 306.213 69.0877 308.982 67.4228C313.728 64.5698 319.086 63.2816 324.441 62.1011C328.254 61.2603 332.239 60.5942 335.901 59.2009C339.843 57.7007 343.752 56.1688 347.67 54.6112C354.204 52.0145 359.431 46.8933 366.254 44.8688C369.612 43.8726 373.646 43.0386 377.151 43.0386" stroke="black" stroke-width="5.48023" stroke-linecap="round"/>
<path d="M218.762 127.174C222.277 127.174 225.521 126.025 228.955 125.401C232.392 124.776 235.825 124.327 239.288 123.936C244.909 123.303 250.671 123.627 256.324 123.627C261.154 123.627 265.696 124.283 270.402 125.203C271.851 125.487 273.578 126.414 275.02 126.414C275.658 126.414 277.439 127.063 275.865 127.189C272.957 127.421 269.501 129.502 267.037 130.962C265.829 131.678 264.381 131.904 263.11 132.496C261.677 133.163 260.071 133.715 258.548 134.143C256.416 134.743 254.325 135.537 252.1 135.537C249.763 135.537 247.426 135.537 245.089 135.537C239.366 135.537 234.733 134.249 229.532 132.13C228.272 131.617 226.657 131.504 225.477 130.849C224.158 130.116 223.246 130.84 222.31 129.202" stroke="black" stroke-width="5.48023" stroke-linecap="round"/>
<path d="M236.254 125.909C237.675 126.296 238.978 128.113 240.294 128.837C241.644 129.579 243.029 130.105 244.504 130.597C247.344 131.544 250.653 130.547 252.923 128.95C253.6 128.474 254.052 127.877 254.627 127.302C256.166 125.763 253.838 126.416 252.515 126.416C250.034 126.416 247.536 126.535 245.123 126.669C244.45 126.706 243.655 126.788 243.096 126.416" stroke="black" stroke-width="5.48023" stroke-linecap="round"/>
<path d="M192.665 145.168C189.867 145.168 187.824 142.839 185.879 141.114C185.052 140.38 184.357 139.573 183.682 138.706C183.061 137.907 183.966 137.843 184.809 137.622C186.604 137.152 208.123 133.898 208.123 135.285C208.123 136.207 205.813 136.864 205.209 137.2C203.318 138.25 201.448 139.35 199.563 140.41C197.599 141.515 195.935 143.209 193.932 144.211C192.583 144.885 193.177 147.35 192.974 148.716C192.882 149.337 192.993 151.973 192.411 152.264" stroke="black" stroke-width="5.48023" stroke-linecap="round"/>
</svg>
