<svg width="27" height="26" viewBox="0 0 27 26" fill="none" xmlns="http://www.w3.org/2000/svg">
<path d="M25.5766 0.705115C25.2041 0.529247 24.7863 0.472686 24.3805 0.543162C23.9746 0.613638 23.6005 0.807712 23.3091 1.09886C23.2916 1.11636 23.2766 1.13261 23.2616 1.15011L21.1041 3.63761C18.892 2.25357 16.3353 1.51962 13.7259 1.51962C11.1166 1.51962 8.55985 2.25357 6.34781 3.63761L4.18406 1.15011C4.16906 1.13261 4.15406 1.11636 4.13656 1.09886C3.84516 0.807712 3.47097 0.613638 3.06512 0.543162C2.65927 0.472686 2.24155 0.529247 1.86906 0.705115C1.52128 0.875891 1.22903 1.14172 1.02615 1.47181C0.823282 1.80189 0.718104 2.1827 0.722807 2.57011V13.5126C0.722807 19.6376 5.73031 24.7164 12.1678 25.4276C12.2379 25.4354 12.3089 25.4282 12.3761 25.4066C12.4432 25.385 12.5051 25.3494 12.5575 25.3021C12.6099 25.2549 12.6517 25.1971 12.6802 25.1326C12.7087 25.068 12.7232 24.9982 12.7228 24.9276V20.9276L11.0453 19.2489C10.8551 19.0643 10.7436 18.8134 10.7341 18.5485C10.7245 18.2837 10.8177 18.0254 10.9941 17.8276C11.0858 17.7299 11.1962 17.6517 11.3187 17.5975C11.4413 17.5433 11.5734 17.5143 11.7074 17.5122C11.8414 17.5101 11.9744 17.535 12.0986 17.5853C12.2228 17.6356 12.3356 17.7104 12.4303 17.8051L13.7228 19.0976L15.0153 17.8039C15.11 17.7091 15.2228 17.6343 15.347 17.584C15.4712 17.5337 15.6042 17.5089 15.7382 17.511C15.8722 17.5131 16.0043 17.5421 16.1269 17.5963C16.2494 17.6504 16.3598 17.7287 16.4516 17.8264C16.628 18.0242 16.7211 18.2824 16.7116 18.5473C16.702 18.8121 16.5905 19.063 16.4003 19.2476L14.7228 20.9264V24.9264C14.7224 24.9969 14.7369 25.0668 14.7654 25.1313C14.7939 25.1959 14.8357 25.2537 14.8881 25.3009C14.9406 25.3481 15.0024 25.3837 15.0695 25.4053C15.1367 25.427 15.2077 25.4341 15.2778 25.4264C21.7153 24.7151 26.7228 19.6376 26.7228 13.5126V2.57011C26.7275 2.1827 26.6223 1.80189 26.4195 1.47181C26.2166 1.14172 25.9243 0.875891 25.5766 0.705115ZM8.22281 15.5126C7.92614 15.5126 7.63613 15.4246 7.38945 15.2598C7.14278 15.095 6.95052 14.8607 6.83699 14.5866C6.72346 14.3125 6.69375 14.011 6.75163 13.72C6.80951 13.429 6.95237 13.1617 7.16215 12.952C7.37193 12.7422 7.6392 12.5993 7.93017 12.5414C8.22114 12.4836 8.52274 12.5133 8.79683 12.6268C9.07092 12.7403 9.30519 12.9326 9.47001 13.1793C9.63483 13.4259 9.72281 13.7159 9.72281 14.0126C9.72281 14.4104 9.56477 14.792 9.28347 15.0733C9.00216 15.3546 8.62063 15.5126 8.22281 15.5126ZM10.7228 7.51261C10.7228 7.77783 10.6174 8.03218 10.4299 8.21972C10.2424 8.40726 9.98802 8.51261 9.72281 8.51261C9.45759 8.51261 9.20324 8.40726 9.0157 8.21972C8.82816 8.03218 8.72281 7.77783 8.72281 7.51261V5.13761C8.72281 4.8724 8.82816 4.61804 9.0157 4.43051C9.20324 4.24297 9.45759 4.13761 9.72281 4.13761C9.98802 4.13761 10.2424 4.24297 10.4299 4.43051C10.6174 4.61804 10.7228 4.8724 10.7228 5.13761V7.51261ZM14.7228 7.51261C14.7228 7.77783 14.6175 8.03218 14.4299 8.21972C14.2424 8.40726 13.988 8.51261 13.7228 8.51261C13.4576 8.51261 13.2032 8.40726 13.0157 8.21972C12.8282 8.03218 12.7228 7.77783 12.7228 7.51261V4.51261C12.7228 4.2474 12.8282 3.99304 13.0157 3.80551C13.2032 3.61797 13.4576 3.51261 13.7228 3.51261C13.988 3.51261 14.2424 3.61797 14.4299 3.80551C14.6175 3.99304 14.7228 4.2474 14.7228 4.51261V7.51261ZM16.7228 7.51261V5.13761C16.7228 4.8724 16.8282 4.61804 17.0157 4.43051C17.2032 4.24297 17.4576 4.13761 17.7228 4.13761C17.988 4.13761 18.2424 4.24297 18.4299 4.43051C18.6175 4.61804 18.7228 4.8724 18.7228 5.13761V7.51261C18.7228 7.77783 18.6175 8.03218 18.4299 8.21972C18.2424 8.40726 17.988 8.51261 17.7228 8.51261C17.4576 8.51261 17.2032 8.40726 17.0157 8.21972C16.8282 8.03218 16.7228 7.77783 16.7228 7.51261ZM19.2228 15.5126C18.9261 15.5126 18.6361 15.4246 18.3895 15.2598C18.1428 15.095 17.9505 14.8607 17.837 14.5866C17.7235 14.3125 17.6938 14.011 17.7516 13.72C17.8095 13.429 17.9524 13.1617 18.1621 12.952C18.3719 12.7422 18.6392 12.5993 18.9302 12.5414C19.2211 12.4836 19.5227 12.5133 19.7968 12.6268C20.0709 12.7403 20.3052 12.9326 20.47 13.1793C20.6348 13.4259 20.7228 13.7159 20.7228 14.0126C20.7228 14.4104 20.5648 14.792 20.2835 15.0733C20.0022 15.3546 19.6206 15.5126 19.2228 15.5126Z" fill="white"/>
</svg>
