<svg width="16" height="18" viewBox="0 0 16 18" fill="none" xmlns="http://www.w3.org/2000/svg">
<path d="M8.55695 0.148616C8.39942 0.0517638 8.21812 0.000488281 8.0332 0.000488281C7.84828 0.000488281 7.66698 0.0517638 7.50945 0.148616C6.25514 0.963703 5.09879 1.92041 4.0632 2.99987C1.75445 5.39112 0.533203 7.98737 0.533203 10.4999C0.533203 12.489 1.32338 14.3966 2.7299 15.8032C4.13643 17.2097 6.04408 17.9999 8.0332 17.9999C10.0223 17.9999 11.93 17.2097 13.3365 15.8032C14.743 14.3966 15.5332 12.489 15.5332 10.4999C15.5332 4.50987 8.84195 0.323616 8.55695 0.148616ZM8.0332 15.9999C7.23755 15.9999 6.47449 15.6838 5.91188 15.1212C5.34927 14.5586 5.0332 13.7955 5.0332 12.9999C5.0332 9.99987 8.0332 7.99987 8.0332 7.99987C8.0332 7.99987 11.0332 9.99987 11.0332 12.9999C11.0332 13.7955 10.7171 14.5586 10.1545 15.1212C9.59191 15.6838 8.82885 15.9999 8.0332 15.9999Z" fill="white"/>
</svg>
