<svg width="13" height="16" viewBox="0 0 13 16" fill="none" xmlns="http://www.w3.org/2000/svg">
<path d="M0.000470058 9.5627L0.000470348 6.24545C0.000470611 3.23628 2.40064 0.738408 5.40655 0.70519C6.1361 0.695353 6.86021 0.832041 7.53597 1.10716C8.21172 1.38227 8.82539 1.79022 9.34062 2.30682C10.7612 3.80945 12.3661 7.47843 12.3661 7.47843C12.4367 7.60061 12.4817 7.73585 12.4985 7.87596C12.5152 8.01606 12.5034 8.15812 12.4636 8.29351C12.4238 8.42889 12.357 8.55479 12.2671 8.66358C12.1772 8.77236 12.0662 8.86175 11.9407 8.92634C11.4418 9.18688 10.827 8.98106 10.5469 8.49516L9.17909 6.12169C9.14104 6.05335 9.08365 5.99779 9.01411 5.96198C8.94458 5.92617 8.86601 5.91171 8.78828 5.92043L8.78047 5.92043C8.6553 5.94198 8.54193 6.00747 8.46074 6.10514C8.37955 6.2028 8.33587 6.32623 8.33756 6.45322L8.33756 14.2523C8.33772 14.3935 8.3092 14.5332 8.25372 14.6631C8.19824 14.7929 8.11696 14.9101 8.01481 15.0075C7.91267 15.105 7.79178 15.1807 7.6595 15.23C7.52721 15.2793 7.38629 15.3012 7.24527 15.2944C6.68447 15.2684 6.25329 14.7851 6.25329 14.2243L6.25329 9.5627C6.25344 9.49127 6.23891 9.42056 6.21059 9.35498C6.18228 9.28941 6.14078 9.23035 6.08867 9.18148C6.03657 9.13262 5.97498 9.09499 5.90772 9.07093C5.84046 9.04687 5.76897 9.0369 5.6977 9.04163C5.56371 9.05314 5.43904 9.11496 5.34878 9.21465C5.25851 9.31434 5.20934 9.44451 5.21115 9.57898L5.21115 10.6048C5.21131 10.746 5.18279 10.8858 5.12731 11.0156C5.07183 11.1454 4.99055 11.2626 4.8884 11.36C4.78626 11.4575 4.66537 11.5332 4.53309 11.5825C4.40081 11.6318 4.25988 11.6538 4.11886 11.647C3.55806 11.6209 3.12688 11.1376 3.12688 10.5768L3.12688 9.04163C3.12704 8.9702 3.1125 8.8995 3.08419 8.83392C3.05587 8.76834 3.01437 8.70928 2.96227 8.66041C2.91016 8.61155 2.84857 8.57392 2.78131 8.54986C2.71405 8.5258 2.64257 8.51583 2.57129 8.52056C2.4373 8.53207 2.31264 8.59389 2.22237 8.69358C2.1321 8.79327 2.08293 8.92344 2.08474 9.05791L2.08474 9.53208C2.08474 10.0929 1.65356 10.5742 1.09276 10.6022C0.951962 10.609 0.811252 10.5872 0.679142 10.538C0.547033 10.4888 0.42627 10.4134 0.324161 10.3162C0.222051 10.219 0.140717 10.1021 0.0850802 9.97263C0.0294431 9.84311 0.000659112 9.70366 0.000470058 9.5627Z" fill="white"/>
</svg>
