<svg width="19" height="19" viewBox="0 0 19 19" fill="none" xmlns="http://www.w3.org/2000/svg">
<path fill-rule="evenodd" clip-rule="evenodd" d="M10.25 1.7583C10.25 1.34409 9.91421 1.0083 9.5 1.0083C9.08579 1.0083 8.75 1.34409 8.75 1.7583V8.75H1.75781C1.3436 8.75 1.00781 9.08579 1.00781 9.5C1.00781 9.91421 1.3436 10.25 1.75781 10.25H8.75V17.2417C8.75 17.6559 9.08579 17.9917 9.5 17.9917C9.91421 17.9917 10.25 17.6559 10.25 17.2417V10.25H17.2412C17.6554 10.25 17.9912 9.91421 17.9912 9.5C17.9912 9.08579 17.6554 8.75 17.2412 8.75H10.25V1.7583Z" fill="white"/>
</svg>
