<svg width="13" height="16" viewBox="0 0 13 16" fill="none" xmlns="http://www.w3.org/2000/svg">
<path d="M12.5054 6.43755V9.7548C12.5054 12.764 10.1052 15.2618 7.09931 15.2951C6.36976 15.3049 5.64566 15.1682 4.9699 14.8931C4.29414 14.618 3.68047 14.21 3.16524 13.6934C1.74468 12.1908 0.139792 8.52182 0.139792 8.52182C0.0691979 8.39964 0.0241513 8.2644 0.00738375 8.12429C-0.00938383 7.98418 0.00247683 7.84213 0.0422466 7.70674C0.0820163 7.57135 0.148867 7.44545 0.238745 7.33667C0.328623 7.22789 0.439657 7.13849 0.565114 7.0739C1.06404 6.81337 1.6789 7.01919 1.95897 7.50508L3.32678 9.87855C3.36482 9.94689 3.42221 10.0025 3.49175 10.0383C3.56128 10.0741 3.63985 10.0885 3.71758 10.0798H3.72539C3.85056 10.0583 3.96393 9.99277 4.04512 9.89511C4.12631 9.79744 4.16999 9.67401 4.1683 9.54702V1.74793C4.16814 1.60675 4.19666 1.46701 4.25214 1.33719C4.30762 1.20737 4.3889 1.09017 4.49105 0.992718C4.59319 0.895261 4.71408 0.819575 4.84636 0.770254C4.97865 0.720932 5.11957 0.699003 5.26059 0.705797C5.82139 0.731851 6.25257 1.21514 6.25257 1.77594V6.43755C6.25242 6.50898 6.26695 6.57968 6.29527 6.64526C6.32358 6.71084 6.36508 6.76989 6.41718 6.81876C6.46929 6.86763 6.53088 6.90526 6.59814 6.92932C6.6654 6.95337 6.73689 6.96335 6.80816 6.95861C6.94215 6.9471 7.06682 6.88529 7.15708 6.7856C7.24735 6.68591 7.29652 6.55574 7.29471 6.42126V5.39541C7.29454 5.25423 7.32307 5.11449 7.37855 4.98467C7.43403 4.85485 7.51531 4.73765 7.61746 4.64019C7.7196 4.54274 7.84049 4.46705 7.97277 4.41773C8.10505 4.36841 8.24598 4.34648 8.387 4.35327C8.9478 4.37933 9.37898 4.86262 9.37898 5.42342V6.95861C9.37882 7.03005 9.39336 7.10075 9.42167 7.16633C9.44999 7.23191 9.49149 7.29096 9.54359 7.33983C9.5957 7.38869 9.65729 7.42632 9.72455 7.45038C9.79181 7.47444 9.86329 7.48442 9.93457 7.47968C10.0686 7.46817 10.1932 7.40636 10.2835 7.30667C10.3738 7.20697 10.4229 7.0768 10.4211 6.94233V6.46816C10.4211 5.90736 10.8523 5.42602 11.4131 5.39802C11.5539 5.39123 11.6946 5.41308 11.8267 5.46224C11.9588 5.51141 12.0796 5.58686 12.1817 5.68404C12.2838 5.78121 12.3651 5.8981 12.4208 6.02761C12.4764 6.15713 12.5052 6.29659 12.5054 6.43755Z" fill="white"/>
</svg>
