<svg width="24" height="23" viewBox="0 0 24 23" fill="none" xmlns="http://www.w3.org/2000/svg">
<g clip-path="url(#clip0_759_25)">
<path d="M12.0002 2.43896C10.1773 2.43896 8.39524 2.97953 6.87951 3.99231C5.36379 5.00509 4.18242 6.44458 3.48481 8.12877C2.7872 9.81295 2.60467 11.6662 2.96031 13.4541C3.31595 15.242 4.19378 16.8843 5.4828 18.1734C6.77182 19.4624 8.41413 20.3402 10.2021 20.6959C11.99 21.0515 13.8432 20.869 15.5274 20.1714C17.2116 19.4737 18.6511 18.2924 19.6639 16.7766C20.6766 15.2609 21.2172 13.4789 21.2172 11.656C21.2141 9.2124 20.2421 6.86979 18.5142 5.14193C16.7864 3.41407 14.4438 2.44201 12.0002 2.43896ZM8.8097 10.947C8.59936 10.947 8.39375 10.8846 8.21886 10.7677C8.04396 10.6509 7.90765 10.4848 7.82716 10.2904C7.74666 10.0961 7.7256 9.88228 7.76664 9.67598C7.80767 9.46968 7.90896 9.28019 8.0577 9.13145C8.20643 8.98272 8.39593 8.88143 8.60223 8.8404C8.80852 8.79936 9.02236 8.82042 9.21669 8.90092C9.41102 8.98141 9.57711 9.11772 9.69397 9.29261C9.81083 9.4675 9.8732 9.67312 9.8732 9.88346C9.8732 10.1655 9.76116 10.436 9.56171 10.6355C9.36227 10.8349 9.09176 10.947 8.8097 10.947ZM15.1907 10.947C14.9804 10.947 14.7747 10.8846 14.5999 10.7677C14.425 10.6509 14.2886 10.4848 14.2082 10.2904C14.1277 10.0961 14.1066 9.88228 14.1476 9.67598C14.1887 9.46968 14.29 9.28019 14.4387 9.13145C14.5874 8.98272 14.7769 8.88143 14.9832 8.8404C15.1895 8.79936 15.4034 8.82042 15.5977 8.90092C15.792 8.98141 15.9581 9.11772 16.075 9.29261C16.1918 9.4675 16.2542 9.67312 16.2542 9.88346C16.2542 10.1655 16.1422 10.436 15.9427 10.6355C15.7433 10.8349 15.4728 10.947 15.1907 10.947Z" fill="white"/>
</g>
<defs>
<clipPath id="clip0_759_25">
<rect width="22.688" height="22.688" fill="white" transform="translate(0.65625 0.312012)"/>
</clipPath>
</defs>
</svg>
