<svg width="20" height="20" viewBox="0 0 20 20" fill="none" xmlns="http://www.w3.org/2000/svg">
<g clip-path="url(#clip0_759_28)">
<path d="M17.6423 13.3746H16.5023C17.1145 12.1981 17.4131 10.8837 17.3695 9.55815C17.3259 8.23264 16.9415 6.94072 16.2533 5.80698C15.5652 4.67325 14.5965 3.73595 13.4408 3.08546C12.285 2.43498 10.9811 2.09326 9.65492 2.09326C8.32868 2.09326 7.02482 2.43498 5.86907 3.08546C4.71331 3.73595 3.74466 4.67325 3.05652 5.80698C2.36838 6.94072 1.98396 8.23264 1.94034 9.55815C1.89672 10.8837 2.19537 12.1981 2.80749 13.3746H1.67046C1.43339 13.3717 1.20456 13.4615 1.03267 13.6247C0.86078 13.788 0.759414 14.012 0.75015 14.2489C0.74798 14.3672 0.769414 14.4848 0.8132 14.5947C0.856986 14.7047 0.922245 14.8048 1.00516 14.8892C1.08808 14.9737 1.187 15.0407 1.29613 15.0865C1.40527 15.1323 1.52243 15.1559 1.64077 15.1558H6.0939C6.25137 15.1558 6.40239 15.2184 6.51374 15.3297C6.62509 15.4411 6.68765 15.5921 6.68765 15.7496C6.68765 15.9071 6.62509 16.0581 6.51374 16.1694C6.40239 16.2808 6.25137 16.3433 6.0939 16.3433H5.51202C5.37454 16.3431 5.24102 16.3894 5.1332 16.4747C5.02538 16.56 4.94963 16.6793 4.91828 16.8131C4.89978 16.8998 4.90091 16.9895 4.92158 17.0756C4.94225 17.1618 4.98194 17.2422 5.03773 17.311C5.09353 17.3798 5.16401 17.4353 5.24403 17.4733C5.32404 17.5114 5.41155 17.531 5.50015 17.5308H14.9801C15.1333 17.5327 15.2815 17.4766 15.3951 17.3738C15.5086 17.271 15.5791 17.129 15.5924 16.9764C15.5978 16.8952 15.5864 16.8137 15.559 16.7371C15.5316 16.6605 15.4887 16.5903 15.4331 16.5309C15.3774 16.4715 15.3101 16.4242 15.2354 16.392C15.1606 16.3597 15.0801 16.3432 14.9987 16.3433H10.8439C10.6864 16.3433 10.5354 16.2808 10.4241 16.1694C10.3127 16.0581 10.2501 15.9071 10.2501 15.7496C10.2501 15.5921 10.3127 15.4411 10.4241 15.3297C10.5354 15.2184 10.6864 15.1558 10.8439 15.1558H11.4221C11.5687 15.1552 11.7103 15.102 11.8213 15.0061C11.9322 14.9101 12.0052 14.7776 12.0269 14.6326C12.0369 14.5493 12.0291 14.4648 12.004 14.3847C11.979 14.3047 11.9372 14.2308 11.8816 14.168C11.8259 14.1053 11.7575 14.055 11.681 14.0206C11.6045 13.9862 11.5216 13.9684 11.4376 13.9683H10.2501C9.14206 13.9683 7.9798 13.5393 7.05874 12.792C6.05308 11.9756 5.50015 10.9165 5.50015 9.81208C5.50003 9.58838 5.51765 9.36503 5.55284 9.14411C5.57519 8.98998 5.65571 8.85025 5.77787 8.75363C5.90002 8.65701 6.05454 8.61083 6.20968 8.62458C6.28986 8.63356 6.36737 8.65879 6.43747 8.69872C6.50758 8.73865 6.56881 8.79246 6.61743 8.85684C6.66605 8.92123 6.70104 8.99485 6.72025 9.0732C6.73947 9.15156 6.74252 9.23302 6.72921 9.31259C6.70176 9.47768 6.68785 9.64473 6.68765 9.81208C6.68765 11.4568 8.63663 12.7808 10.2501 12.7808H11.3961C12.398 12.7808 13.2412 13.601 13.2182 14.6029C13.2166 14.6732 13.2109 14.7433 13.2011 14.8129C13.1944 14.8556 13.1971 14.8992 13.209 14.9407C13.2209 14.9822 13.2417 15.0207 13.2699 15.0533C13.2982 15.0859 13.3332 15.112 13.3726 15.1297C13.412 15.1475 13.4548 15.1564 13.498 15.1558H17.672C17.7904 15.1559 17.9075 15.1323 18.0167 15.0865C18.1258 15.0407 18.2247 14.9737 18.3076 14.8892C18.3906 14.8048 18.4558 14.7047 18.4996 14.5947C18.5434 14.4848 18.5648 14.3672 18.5626 14.2489C18.5534 14.012 18.452 13.788 18.2801 13.6247C18.1082 13.4615 17.8794 13.3717 17.6423 13.3746ZM9.64898 7.25599C9.62733 7.42083 9.55998 7.57633 9.45454 7.70488C9.3491 7.83342 9.20979 7.92989 9.05236 7.98336C8.89494 8.03683 8.72569 8.04517 8.56377 8.00743C8.40185 7.96969 8.25373 7.88738 8.13616 7.76982C8.0186 7.65226 7.93629 7.50413 7.89855 7.34221C7.86081 7.1803 7.86915 7.01105 7.92262 6.85362C7.97609 6.69619 8.07256 6.55688 8.20111 6.45144C8.32965 6.346 8.48515 6.27865 8.64999 6.257C8.78539 6.23923 8.92306 6.25282 9.05236 6.29674C9.18166 6.34066 9.29914 6.41372 9.3957 6.51028C9.49226 6.60685 9.56532 6.72432 9.60924 6.85362C9.65316 6.98292 9.66675 7.12059 9.64898 7.25599ZM13.2115 10.8185C13.1898 10.9833 13.1225 11.1388 13.017 11.2674C12.9116 11.3959 12.7723 11.4924 12.6149 11.5459C12.4574 11.5993 12.2882 11.6077 12.1263 11.5699C11.9643 11.5322 11.8162 11.4499 11.6987 11.3323C11.5811 11.2148 11.4988 11.0666 11.4611 10.9047C11.4233 10.7428 11.4317 10.5735 11.4851 10.4161C11.5386 10.2587 11.6351 10.1194 11.7636 10.0139C11.8922 9.9085 12.0476 9.84115 12.2125 9.81951C12.3479 9.80173 12.4856 9.81532 12.6149 9.85924C12.7442 9.90316 12.8616 9.97622 12.9582 10.0728C13.0548 10.1693 13.1278 10.2868 13.1717 10.4161C13.2157 10.5454 13.2293 10.6831 13.2115 10.8185Z" fill="white"/>
</g>
<defs>
<clipPath id="clip0_759_28">
<rect width="19" height="19" fill="white" transform="translate(0.15625 0.312012)"/>
</clipPath>
</defs>
</svg>
